HIERARCHY
ROOT Hips
{
	OFFSET -13.091600 -28.302996 44.698402
	CHANNELS 6 Xposition Yposition Zposition Zrotation Xrotation Yrotation
	JOINT Chest
	{
		OFFSET -0.673000 0.623899 5.369202
		CHANNELS 6 Xposition Yposition Zposition Zrotation Xrotation Yrotation
		JOINT Chest2
		{
			OFFSET 0.000000 0.000000 4.415001
			CHANNELS 6 Xposition Yposition Zposition Zrotation Xrotation Yrotation
			JOINT Neck
			{
				OFFSET 0.000000 0.000002 10.273300
				CHANNELS 6 Xposition Yposition Zposition Zrotation Xrotation Yrotation
				JOINT Head
				{
					OFFSET 0.000000 0.000000 2.173897
					CHANNELS 6 Xposition Yposition Zposition Zrotation Xrotation Yrotation
					End Site
					{
						OFFSET 0.000000 0.000000 9.961800
					}
				}
			}
			JOINT LeftCollar
			{
				OFFSET 2.359900 -0.565201 5.928101
				CHANNELS 6 Xposition Yposition Zposition Zrotation Xrotation Yrotation
				JOINT LeftShoulder
				{
					OFFSET 5.443700 0.000000 0.000000
					CHANNELS 6 Xposition Yposition Zposition Zrotation Xrotation Yrotation
					JOINT LeftElbow
					{
						OFFSET 0.000000 0.000000 -10.615799
						CHANNELS 6 Xposition Yposition Zposition Zrotation Xrotation Yrotation
						JOINT LeftWrist
						{
							OFFSET 0.000000 -0.000002 -13.110302
							CHANNELS 6 Xposition Yposition Zposition Zrotation Xrotation Yrotation
							End Site
							{
								OFFSET 0.000000 0.000000 -2.173901
							}
						}
					}
				}
			}
			JOINT RightCollar
			{
				OFFSET -2.636600 -1.718800 6.889698
				CHANNELS 6 Xposition Yposition Zposition Zrotation Xrotation Yrotation
				JOINT RightShoulder
				{
					OFFSET -4.139101 0.000000 0.000000
					CHANNELS 6 Xposition Yposition Zposition Zrotation Xrotation Yrotation
					JOINT RightElbow
					{
						OFFSET 0.000000 0.000000 -10.471802
						CHANNELS 6 Xposition Yposition Zposition Zrotation Xrotation Yrotation
						JOINT RightWrist
						{
							OFFSET 0.000000 0.000000 -12.281898
							CHANNELS 6 Xposition Yposition Zposition Zrotation Xrotation Yrotation
							End Site
							{
								OFFSET 0.000000 -0.000002 -2.173901
							}
						}
					}
				}
			}
		}
	}
	JOINT LeftHip
	{
		OFFSET 2.273400 0.176701 -2.518002
		CHANNELS 6 Xposition Yposition Zposition Zrotation Xrotation Yrotation
		JOINT LeftKnee
		{
			OFFSET 0.000000 -0.000002 -20.456402
			CHANNELS 6 Xposition Yposition Zposition Zrotation Xrotation Yrotation
			JOINT LeftAnkle
			{
				OFFSET 0.000000 -0.000002 -16.635300
				CHANNELS 6 Xposition Yposition Zposition Zrotation Xrotation Yrotation
				End Site
				{
					OFFSET 0.000000 -8.812399 0.000001
				}
			}
		}
	}
	JOINT RightHip
	{
		OFFSET -1.914800 0.018101 -2.699299
		CHANNELS 6 Xposition Yposition Zposition Zrotation Xrotation Yrotation
		JOINT RightKnee
		{
			OFFSET 0.000000 -0.000002 -20.148901
			CHANNELS 6 Xposition Yposition Zposition Zrotation Xrotation Yrotation
			JOINT RightAnkle
			{
				OFFSET 0.000000 -0.000002 -16.838301
				CHANNELS 6 Xposition Yposition Zposition Zrotation Xrotation Yrotation
				End Site
				{
					OFFSET 0.000000 -8.328398 0.000001
				}
			}
		}
	}
}
MOTION
Frames: 6
Frame Time: 0.041667
-16.096699 -9.972692 49.594002 1812.889027 15.049839 -3.706176 -0.673000 0.623903 5.369215 -11.920771 2.965738 -6.078873 0.000000 0.000000 4.415009 18.500858 -2.779261 1.013870 -0.000002 -0.000004 10.273300 -21.399618 14.548742 11.888222 -0.000001 -0.000009 2.173892 -1.349351 -4.377327 -2.730835 2.359899 -0.565207 5.928099 17.360230 -8.591943 -31.339941 5.443700 -0.000003 0.000004 167.041483 196.660913 -295.515019 -0.000001 -0.000001 -10.615796 604.033735 -149.107824 195.111553 0.000009 0.000006 -13.110306 -1347.415132 -4.121905 105.932614 -2.636607 -1.718806 6.889694 166.237461 -162.454055 208.037740 -4.139103 0.000000 -0.000010 420.362435 -400.787851 499.830839 0.000000 -0.000000 -10.471815 -3.860520 -26.094492 -364.999025 0.000004 0.000005 -12.281893 416.917370 14.740856 68.782833 2.273399 0.176704 -2.517997 -159.830006 -157.813338 -170.319633 -0.000002 -0.000002 -20.456394 175.526395 158.277203 -177.565698 -0.000004 0.000003 -16.635292 4.651468 46.973574 12.306325 -1.914800 0.018103 -2.699296 164.029083 198.762944 190.167848 -0.000000 -0.000003 -20.148897 -13.519410 13.921218 -5.265897 0.000002 -0.000005 -16.838303 -3.468806 62.396858 -2.779465
-16.205099 -9.971586 49.625198 1812.893617 15.171710 -3.644860 -0.672998 0.623901 5.369203 -11.908392 2.877818 -6.221176 -0.000000 -0.000003 4.415011 18.628359 -2.785568 1.021246 0.000002 -0.000003 10.273299 -21.370561 14.483916 11.907787 -0.000003 -0.000006 2.173895 -1.383943 -4.236165 -2.725017 2.359901 -0.565202 5.928101 17.313215 -8.453546 -31.235719 5.443696 -0.000005 0.000007 167.047876 196.446991 -295.722493 0.000001 -0.000001 -10.615810 603.892432 -149.225727 195.106813 0.000003 0.000011 -13.110294 -1347.629982 -4.230974 105.845714 -2.636600 -1.718804 6.889697 166.398161 -162.842611 207.982921 -4.139100 -0.000005 -0.000005 420.420027 -400.831127 500.224477 0.000002 -0.000001 -10.471816 -3.726552 -26.052093 -364.968126 -0.000003 -0.000008 -12.281899 416.798770 14.728972 68.697394 2.273402 0.176702 -2.518006 -159.622614 -157.573762 -170.274867 0.000001 -0.000004 -20.456398 175.442397 158.230703 -177.716768 -0.000003 -0.000000 -16.635296 4.634315 47.185225 12.516613 -1.914795 0.018103 -2.699298 163.916303 198.880232 189.983938 0.000001 -0.000003 -20.148901 -13.801388 13.838738 -5.341981 0.000003 -0.000004 -16.838305 -3.186517 62.747951 -2.962059
-16.307499 -9.963188 49.653809 1812.818758 15.272745 -3.618974 -0.673006 0.623896 5.369208 -11.825783 2.809112 -6.281556 0.000002 0.000001 4.415004 18.757706 -2.797653 1.027453 -0.000002 -0.000005 10.273302 -21.264356 14.442148 11.859988 -0.000002 -0.000006 2.173897 -1.473808 -4.270184 -2.793144 2.359894 -0.565209 5.928089 17.246965 -8.311746 -31.198450 5.443698 -0.000006 0.000003 167.079623 196.255145 -295.877347 0.000005 -0.000002 -10.615807 603.763478 -149.313768 195.057348 0.000011 0.000005 -13.110313 -1347.900676 -4.363655 105.832504 -2.636604 -1.718807 6.889702 166.440768 -163.077487 207.848599 -4.139099 -0.000004 -0.000004 420.758969 -400.857601 500.613196 0.000001 -0.000004 -10.471805 -3.668277 -25.964614 -364.981977 0.000007 -0.000003 -12.281910 416.655910 14.730841 68.657212 2.273398 0.176700 -2.518002 -159.424320 -157.369812 -170.217740 -0.000000 -0.000002 -20.456404 175.419407 158.199776 -177.876322 -0.000002 0.000002 -16.635298 4.541404 47.390895 12.779958 -1.914802 0.018099 -2.699301 163.764044 199.066205 189.844288 -0.000000 -0.000003 -20.148901 -13.990475 13.884347 -5.414285 0.000002 -0.000004 -16.838301 -2.817606 63.010476 -3.205480
-16.405897 -9.948591 49.676109 1812.722152 15.303498 -3.641936 -0.673001 0.623897 5.369199 -11.732487 2.802501 -6.246824 -0.000001 -0.000001 4.415005 18.891410 -2.820031 1.030728 -0.000001 -0.000001 10.273300 -21.161111 14.423473 11.811625 -0.000001 -0.000000 2.173893 -1.589459 -4.310979 -2.882458 2.359899 -0.565204 5.928101 17.156786 -8.175603 -31.232997 5.443696 -0.000005 -0.000002 167.118391 196.088106 -295.947944 -0.000008 0.000000 -10.615794 603.715066 -149.345091 194.991396 0.000004 0.000004 -13.110304 -1347.889967 -4.408908 105.836520 -2.636602 -1.718804 6.889701 166.531569 -163.385488 207.716735 -4.139097 0.000000 0.000003 421.108893 -400.904456 501.065191 0.000006 0.000001 -10.471794 -3.553708 -25.879785 -364.979327 0.000007 -0.000005 -12.281902 416.376637 14.729984 68.616729 2.273402 0.176700 -2.518006 -159.214851 -157.256131 -170.149588 0.000002 -0.000002 -20.456404 175.482409 158.189503 -178.047896 -0.000003 -0.000001 -16.635296 4.321613 47.610728 13.007250 -1.914798 0.018103 -2.699298 163.719279 199.207740 189.795931 0.000002 -0.000004 -20.148901 -14.150244 13.987297 -5.477622 0.000000 -0.000004 -16.838305 -2.515030 63.156574 -3.530308
-16.498802 -9.929790 49.693508 1812.688165 15.275088 -3.703432 -0.672998 0.623900 5.369205 -11.703270 2.830827 -6.195846 0.000004 0.000002 4.415012 19.057174 -2.830424 1.038423 0.000001 -0.000001 10.273314 -21.100886 14.447361 11.824931 -0.000001 -0.000005 2.173896 -1.743952 -4.359948 -3.016450 2.359900 -0.565201 5.928109 16.947265 -7.893645 -31.183201 5.443695 -0.000001 0.000003 167.221787 196.002483 -296.124163 -0.000000 0.000001 -10.615798 603.782931 -149.359927 194.926058 0.000005 0.000002 -13.110308 -1347.660800 -4.342890 105.846567 -2.636599 -1.718802 6.889709 166.775270 -163.856429 207.809872 -4.139103 -0.000005 -0.000002 421.259703 -401.117120 501.516858 0.000004 -0.000000 -10.471809 -3.506186 -25.804100 -365.055525 0.000005 -0.000004 -12.281898 416.292380 14.711985 68.487570 2.273401 0.176703 -2.517994 -159.064738 -157.196708 -170.089674 -0.000002 -0.000001 -20.456400 175.580558 158.175392 -178.209908 -0.000003 0.000001 -16.635296 4.033657 47.810026 13.209273 -1.914797 0.018104 -2.699297 163.747488 199.270004 189.821079 -0.000001 -0.000001 -20.148897 -14.361899 14.067762 -5.547785 0.000001 -0.000004 -16.838301 -2.372438 63.254211 -3.801472
-16.586300 -9.908291 49.704906 1812.732534 15.217252 -3.764901 -0.673001 0.623901 5.369217 -11.751335 2.892387 -6.153055 0.000001 0.000000 4.415009 19.237484 -2.844976 1.045392 0.000001 0.000000 10.273303 -21.126122 14.468598 11.882089 -0.000005 0.000005 2.173899 -1.743253 -4.450292 -3.044608 2.359898 -0.565200 5.928102 16.764609 -7.642193 -31.117929 5.443684 -0.000002 0.000004 167.273409 195.959084 -296.277132 -0.000001 0.000000 -10.615801 603.922376 -149.319683 194.909611 0.000003 0.000010 -13.110305 -1347.271753 -4.222259 105.924500 -2.636604 -1.718801 6.889699 166.880591 -164.163583 207.960204 -4.139103 -0.000002 0.000006 421.521710 -401.384673 501.861646 0.000001 0.000001 -10.471807 -3.297170 -25.794254 -365.165655 0.000011 -0.000001 -12.281893 416.327842 14.696537 68.186475 2.273401 0.176703 -2.518002 -158.891770 -157.146971 -170.028434 -0.000003 -0.000002 -20.456400 175.625460 158.130135 -178.343944 -0.000006 0.000001 -16.635294 3.730245 47.975922 13.335191 -1.914799 0.018103 -2.699290 163.861470 199.253694 189.854766 -0.000000 -0.000005 -20.148899 -14.729093 14.101793 -5.584768 0.000000 -0.000004 -16.838301 -2.359734 63.314214 -3.933476
